<svg xmlns="http://www.w3.org/2000/svg" viewBox="0 0 58 58" style="enable-background:new 0 0 58 58" xml:space="preserve"><path style="fill:#f0c419" d="m48 7.5-11-5 3.363 1.529L43 11.5H15l2.637-7.471L21 2.5l-11 5-10 16 8 6 6-7v33h30v-33l5 7 9-6z"/><path style="fill:#659c35" d="M24.087 8.955zM21.35 3.998c.395 1.403.919 2.529 1.505 3.432-.586-.903-1.11-2.029-1.505-3.432zM28.999 11.049c-.295.037-.48.043-.48.043s-1.131-.017-2.538-.748c1.407.731 2.538.748 2.538.748s.185-.006.48-.043z"/><path style="fill:#659c35" d="M15 11.5h14v-.451h-.001c-.295.037-.48.044-.48.044s-1.131-.017-2.538-.748a7.789 7.789 0 0 1-1.894-1.389 9.065 9.065 0 0 1-1.232-1.526c-.585-.903-1.109-2.029-1.505-3.432A17.714 17.714 0 0 1 21 2.5l-3.363 1.529L15 11.5zM29.481 11.093s-.186-.006-.481-.044v.451h14l-2.637-7.471L37 2.5c-1.611 8.503-7.519 8.593-7.519 8.593zM14 47.5h30v3H14zM33.652 29.5A5.495 5.495 0 0 0 36 25c0-3.032-2.468-5.5-5.5-5.5h-3A5.507 5.507 0 0 0 22 25c0 1.86.931 3.504 2.348 4.5A5.495 5.495 0 0 0 22 34c0 3.032 2.468 5.5 5.5 5.5h3c3.032 0 5.5-2.468 5.5-5.5 0-1.86-.931-3.504-2.348-4.5zM24 25c0-1.93 1.57-3.5 3.5-3.5h3c1.93 0 3.5 1.57 3.5 3.5s-1.57 3.5-3.5 3.5h-3c-1.93 0-3.5-1.57-3.5-3.5zm6.5 12.5h-3c-1.93 0-3.5-1.57-3.5-3.5s1.57-3.5 3.5-3.5h3c1.93 0 3.5 1.57 3.5 3.5s-1.57 3.5-3.5 3.5z"/></svg>